Coordinates
version=1
nRows=18
nColumns=22
inDegrees=yes

Units are S.I. units (second, meters, Newtons, ...)
If the header above contains a line with 'inDegrees', this indicates whether rotational values are in degrees (yes) or radians (no).

endheader
time	pelvis_tilt	pelvis_list	pelvis_rotation	pelvis_tx	pelvis_ty	pelvis_tz	hip_flexion_r	hip_adduction_r	hip_rotation_r	knee_angle_r	ankle_angle_r	subtalar_angle_r	hip_flexion_l	hip_adduction_l	hip_rotation_l	knee_angle_l	ankle_angle_l	subtalar_angle_l	lumbar_extension	lumbar_bending	lumbar_rotation
      4.26000000	     -1.86148392	      4.19952101	    151.10358018	      0.36581345	      1.00261180	     -0.44879081	     15.07187871	     -3.79606564	     -2.20408588	    -55.76985462	      8.65802334	      2.19575374	      8.41344945	      5.81040961	    -10.38075097	    -21.04991993	     11.85448960	    -13.48584486	    -14.54057451	      1.90243505	      2.33074660
      4.27000000	     -1.79213798	      4.09790227	    152.02825393	      0.36114560	      1.00274619	     -0.44912301	     15.60406256	     -3.86452893	     -1.40042357	    -54.32023784	      9.15348930	      1.56342983	      8.09459119	      6.04299121	     -9.59356226	    -20.74428486	     11.86840685	    -13.43424313	    -14.44119507	      1.99631924	      1.94690003
      4.28000000	     -1.69978688	      3.98789045	    152.96081743	      0.35654736	      1.00281871	     -0.44943326	     16.12562247	     -3.90078379	     -0.54364047	    -52.76863496	      9.63588852	      1.13048310	      7.81452958	      6.26114742	     -8.79115554	    -20.46550593	     11.89207973	    -13.38126382	    -14.32080986	      2.07780193	      1.57197822
      4.29000000	     -1.58199317	      3.89029653	    153.88995758	      0.35202361	      1.00285672	     -0.44974498	     16.63260568	     -3.87299269	      0.37836703	    -51.12415612	      9.97867865	      0.58727735	      7.56100577	      6.44669701	     -7.96389220	    -20.20598228	     11.91767424	    -13.33271612	    -14.18841387	      2.16916198	      1.23168109
      4.30000000	     -1.44623727	      3.80432538	    154.80572455	      0.34760623	      1.00285281	     -0.45010455	     17.12953139	     -3.78100150	      1.38234634	    -49.41995105	     10.27062814	      0.14148142	      7.33980822	      6.59649592	     -7.14746282	    -19.98473355	     11.96489605	    -13.28356121	    -14.05613271	      2.25272938	      0.92996747
      4.31000000	     -1.29379315	      3.73197396	    155.72022550	      0.34323840	      1.00281087	     -0.45048510	     17.61334164	     -3.63189737	      2.45161980	    -47.67336988	     10.48453600	     -0.22549137	      7.14367815	      6.71577311	     -6.32855304	    -19.79358456	     12.02950839	    -13.22853849	    -13.91571353	      2.34186524	      0.65525500
      4.32000000	     -1.12960315	      3.67453382	    156.63290784	      0.33893117	      1.00273677	     -0.45089477	     18.08402655	     -3.43054219	      3.57283064	    -45.90215720	     10.63714850	     -0.49361320	      6.97186945	      6.80560933	     -5.50799023	    -19.63833250	     12.11250276	    -13.16377942	    -13.77772703	      2.43220465	      0.40209597
      4.33000000	     -0.95840811	      3.63253911	    157.54833763	      0.33466277	      1.00263478	     -0.45132177	     18.53909914	     -3.18487449	      4.72965745	    -44.12407980	     10.73481842	     -0.66054533	      6.81795961	      6.87025814	     -4.67832663	    -19.51607456	     12.21054879	    -13.08635998	    -13.64385815	      2.52628044	      0.16737589
      4.34000000	     -0.78540307	      3.60925615	    158.47780683	      0.33042426	      1.00251383	     -0.45176689	     18.97415177	     -2.90106193	      5.89251474	    -42.35514476	     10.77856516	     -0.72225583	      6.67705096	      6.90899637	     -3.83005915	    -19.42977243	     12.32600458	    -12.99649363	    -13.51919916	      2.62299818	     -0.05972856
      4.35000000	     -0.61520874	      3.60309814	    159.42314752	      0.32619052	      1.00237715	     -0.45220662	     19.38881873	     -2.59168696	      7.03537359	    -40.61044814	     10.76992154	     -0.68144369	      6.54006338	      6.92803834	     -2.96087595	    -19.37013457	     12.45470076	    -12.89234215	    -13.40557018	      2.72627377	     -0.28524539
      4.36000000	     -0.45519692	      3.61328584	    160.38289372	      0.32195248	      1.00223650	     -0.45265119	     19.78265841	     -2.26431492	      8.13387856	    -38.90826563	     10.71111554	     -0.53124785	      6.39648464	      6.93013167	     -2.07130421	    -19.33089382	     12.59422719	    -12.77826406	    -13.30899972	      2.82944885	     -0.50755901
      4.37000000	     -0.31390018	      3.63850225	    161.35569601	      0.31769282	      1.00209857	     -0.45307376	     20.15387549	     -1.92922834	      9.16397260	    -37.26412371	     10.60485305	     -0.27071601	      6.23637766	      6.92087161	     -1.16466042	    -19.30885957	     12.74295366	    -12.65854036	    -13.23671839	      2.93658733	     -0.73230591
      4.38000000	     -0.19594371	      3.67291807	    162.32896707	      0.31340513	      1.00196670	     -0.45349934	     20.50767321	     -1.59216189	     10.10574479	    -35.69234768	     10.45717236	      0.07783169	      6.05170453	      6.90541363	     -0.25245204	    -19.29434264	     12.89497554	    -12.54244267	    -13.19125205	      3.03391561	     -0.94121986
      4.39000000	     -0.11492318	      3.70968367	    163.28840839	      0.30906338	      1.00186103	     -0.45393230	     20.83618914	     -1.26193795	     10.95172907	    -34.20160495	     10.32181203	      0.59170731	      5.81613339	      6.89224188	      0.64528076	    -19.26061736	     13.03783942	    -12.41638569	    -13.18017476	      3.11525270	     -1.12946415
      4.40000000	     -0.06123898	      3.75312592	    164.23778880	      0.30472677	      1.00175959	     -0.45435890	     21.15744436	     -0.93076388	     11.66149629	    -32.79894607	     10.09688283	      1.07806120	      5.55998121	      6.87340149	      1.54131566	    -19.24490730	     13.19381371	    -12.31547282	    -13.20606018	      3.18644400	     -1.28675565
      4.41000000	     -0.03378201	      3.79929163	    165.17676823	      0.30034558	      1.00166962	     -0.45478023	     21.46489882	     -0.60511106	     12.20997564	    -31.47120965	      9.83143394	      1.56155695	      5.26896832	      6.84906054	      2.41308844	    -19.21738183	     13.35222522	    -12.22428639	    -13.25719023	      3.24949837	     -1.43527515
      4.42000000	     -0.03920892	      3.84310947	    166.10181296	      0.29592314	      1.00159579	     -0.45518710	     21.75432599	     -0.28830666	     12.59719081	    -30.21813135	      9.52760083	      2.08994452	      4.93881058	      6.82636524	      3.26531172	    -19.18152689	     13.51060179	    -12.13302773	    -13.34301531	      3.29826328	     -1.55976776
      4.43000000	     -0.07645112	      3.87940032	    167.00617042	      0.29146197	      1.00154111	     -0.45560247	     22.02670108	      0.01954096	     12.82334399	    -29.03331428	      9.18690235	      2.67996264	      4.57031337	      6.80715326	      4.08939772	    -19.13311999	     13.66674458	    -12.03964444	    -13.46131216	      3.32357638	     -1.64491760
